<svg width="493" height="116" viewBox="0 0 493 116" fill="none" xmlns="http://www.w3.org/2000/svg">
<g filter="url(#filter0_d_157_3632)">
<path d="M69.797 23.1742C74.5467 17.272 76.9216 14.3209 79.794 12.0996C83.1233 9.52508 86.9454 7.66092 91.0239 6.62242C94.5427 5.72643 98.3303 5.6719 105.906 5.56285L412.136 1.1542C438.852 0.769577 452.21 0.577267 460.292 6.14323C467.158 10.8711 471.811 18.1821 473.187 26.4034C474.808 36.0821 468.978 48.1024 457.318 72.143V72.143C452.385 82.3146 449.919 87.4004 446.171 91.1069C442.945 94.2977 439.053 96.7355 434.775 98.2457C429.804 100 424.152 100 412.847 100L106.585 100C77.3232 100 62.6922 100 54.8273 94.6067C45.7701 88.3958 40.7099 77.8284 41.5495 66.8784C42.2786 57.3698 51.4514 45.9713 69.797 23.1742V23.1742Z" fill="#363F69"/>
<path d="M412.158 2.69238C425.546 2.49964 435.48 2.35844 443.082 2.95117C450.686 3.5441 455.716 4.85973 459.42 7.41016C465.942 11.9016 470.362 18.8471 471.67 26.6572C472.412 31.0922 471.475 36.2069 468.793 43.3467C466.112 50.4842 461.778 59.4242 455.935 71.4717C450.951 81.7462 448.604 86.5358 445.089 90.0127C442.024 93.0439 438.327 95.3602 434.263 96.7949C429.6 98.4405 424.267 98.4619 412.848 98.4619L106.585 98.4619C91.9268 98.4619 81.028 98.4599 72.8066 97.792C64.5583 97.1219 59.2799 95.7946 55.6973 93.3379C47.093 87.4376 42.2854 77.3985 43.083 66.9961C43.4151 62.6647 45.6906 57.7202 50.3398 50.874C54.9738 44.0503 61.8053 35.5584 70.9951 24.1387C75.7913 18.1787 78.0402 15.4006 80.7354 13.3164C83.8981 10.8707 87.5289 9.09984 91.4033 8.11328C94.705 7.27258 98.2783 7.21169 105.928 7.10156L412.158 2.69238Z" stroke="url(#paint0_linear_157_3632)" stroke-opacity="0.8" stroke-width="3.07692"/>
<path d="M61.8243 23.1742C66.574 17.272 68.9489 14.3208 71.8213 12.0996C75.1507 9.52508 78.9728 7.66092 83.0513 6.62242C86.5701 5.72643 90.3577 5.6719 97.9329 5.56285L404.163 1.1542C430.879 0.769577 444.237 0.577267 452.32 6.14323C459.185 10.8711 463.838 18.1821 465.215 26.4034C466.835 36.0821 461.005 48.1024 449.346 72.143V72.143C444.413 82.3146 441.946 87.4004 438.199 91.1069C434.973 94.2977 431.081 96.7355 426.802 98.2457C421.832 100 416.179 100 404.875 100L98.6127 100C69.3506 100 54.7195 100 46.8546 94.6067C37.7975 88.3958 32.7373 77.8284 33.5769 66.8784C34.3059 57.3698 43.4787 45.9713 61.8243 23.1742V23.1742Z" fill="url(#paint1_linear_157_3632)"/>
<path d="M404.186 2.69238C417.574 2.49964 427.508 2.35844 435.109 2.95117C442.713 3.5441 447.744 4.85973 451.447 7.41016C457.969 11.9016 462.389 18.8471 463.697 26.6572C464.44 31.0922 463.503 36.2069 460.82 43.3467C458.139 50.4842 453.805 59.4242 447.962 71.4717C442.979 81.7462 440.631 86.5358 437.116 90.0127C434.052 93.0439 430.355 95.3602 426.29 96.7949C421.628 98.4405 416.294 98.4619 404.875 98.4619L98.6123 98.4619C83.9542 98.4619 73.0553 98.4599 64.834 97.792C56.5856 97.1219 51.3072 95.7946 47.7246 93.3379C39.1204 87.4376 34.3128 77.3985 35.1104 66.9961C35.4425 62.6647 37.7179 57.7202 42.3672 50.874C47.0012 44.0503 53.8327 35.5584 63.0225 24.1387C67.8187 18.1787 70.0675 15.4006 72.7627 13.3164C75.9254 10.8707 79.5563 9.09984 83.4307 8.11328C86.7323 7.27258 90.3057 7.21169 97.9551 7.10156L404.186 2.69238Z" stroke="url(#paint2_linear_157_3632)" stroke-opacity="0.8" stroke-width="3.07692"/>
</g>
<path d="M199.459 42.3441V47.0896H208.747V53.1329H199.459V58.3245H209.964V64.6924H191.469V35.9763H209.964V42.3441H199.459ZM231.659 41.7357C234.282 41.7357 236.337 42.6145 237.824 44.3721C239.311 46.1026 240.055 48.4686 240.055 51.47V64.6924H232.146V52.484C232.146 51.159 231.794 50.1315 231.091 49.4015C230.415 48.6444 229.496 48.2658 228.333 48.2658C227.143 48.2658 226.197 48.6579 225.494 49.442C224.791 50.1991 224.439 51.2537 224.439 52.6057V64.6924H216.449V41.9385H224.439V45.7511C225.088 44.5343 226.035 43.5609 227.279 42.8308C228.522 42.1008 229.983 41.7357 231.659 41.7357ZM260.68 57.8784V64.6924H257.395C254.61 64.6924 252.433 64.0029 250.865 62.6239C249.297 61.2448 248.512 58.96 248.512 55.7693V48.5903H245.592V41.9385H248.512V36.4224H256.503V41.9385H260.599V48.5903H256.503V55.9315C256.503 56.6346 256.651 57.1348 256.949 57.4322C257.273 57.7297 257.801 57.8784 258.531 57.8784H260.68ZM289.024 52.8896C289.024 53.4574 288.957 54.0793 288.822 54.7553H273.774C273.909 57.3241 275.031 58.6085 277.14 58.6085C277.925 58.6085 278.574 58.4192 279.087 58.0406C279.601 57.6621 279.953 57.1618 280.142 56.5399H288.578C288.281 58.1353 287.618 59.5819 286.591 60.8798C285.563 62.1507 284.265 63.1511 282.697 63.8812C281.129 64.6113 279.412 64.9763 277.546 64.9763C275.275 64.9763 273.26 64.5166 271.503 63.5973C269.772 62.6509 268.42 61.2989 267.447 59.5413C266.473 57.7567 265.987 55.6747 265.987 53.2952C265.987 50.9157 266.473 48.8472 267.447 47.0896C268.42 45.332 269.786 43.9935 271.543 43.0742C273.301 42.1278 275.302 41.6546 277.546 41.6546C279.817 41.6546 281.818 42.1143 283.549 43.0336C285.279 43.953 286.618 45.2644 287.564 46.9679C288.538 48.6714 289.024 50.6453 289.024 52.8896ZM280.912 51.4294C280.939 50.2667 280.629 49.388 279.98 48.7931C279.331 48.1982 278.519 47.9008 277.546 47.9008C276.491 47.9008 275.626 48.1982 274.95 48.7931C274.301 49.388 273.923 50.2667 273.815 51.4294H280.912ZM303.065 46.1973C303.957 44.8453 305.079 43.7637 306.431 42.9525C307.783 42.1413 309.216 41.7357 310.73 41.7357V50.2532H308.418C306.634 50.2532 305.295 50.6047 304.403 51.3078C303.511 51.9838 303.065 53.1735 303.065 54.877V64.6924H295.074V41.9385H303.065V46.1973Z" fill="#E8EFF9"/>
<defs>
<filter id="filter0_d_157_3632" x="33.4863" y="0.987061" width="452.275" height="114.398" filterUnits="userSpaceOnUse" color-interpolation-filters="sRGB">
<feFlood flood-opacity="0" result="BackgroundImageFix"/>
<feColorMatrix in="SourceAlpha" type="matrix" values="0 0 0 0 0 0 0 0 0 0 0 0 0 0 0 0 0 0 127 0" result="hardAlpha"/>
<feOffset dx="7.69231" dy="10.7692"/>
<feGaussianBlur stdDeviation="2.30769"/>
<feComposite in2="hardAlpha" operator="out"/>
<feColorMatrix type="matrix" values="0 0 0 0 0 0 0 0 0 0 0 0 0 0 0 0 0 0 0.25 0"/>
<feBlend mode="normal" in2="BackgroundImageFix" result="effect1_dropShadow_157_3632"/>
<feBlend mode="normal" in="SourceGraphic" in2="effect1_dropShadow_157_3632" result="shape"/>
</filter>
<linearGradient id="paint0_linear_157_3632" x1="-61.2482" y1="-11.2662" x2="-14.6643" y2="252.887" gradientUnits="userSpaceOnUse">
<stop stop-color="#CC316F"/>
<stop offset="1" stop-color="#2B2D2F"/>
</linearGradient>
<linearGradient id="paint1_linear_157_3632" x1="0" y1="50" x2="484.335" y2="50" gradientUnits="userSpaceOnUse">
<stop stop-color="#A099FF"/>
<stop offset="1" stop-color="#153161"/>
</linearGradient>
<linearGradient id="paint2_linear_157_3632" x1="-69.2209" y1="-11.2662" x2="-22.637" y2="252.887" gradientUnits="userSpaceOnUse">
<stop stop-color="#CC316F"/>
<stop offset="1" stop-color="#2B2D2F"/>
</linearGradient>
</defs>
</svg>
