<svg width="493" height="116" viewBox="0 0 493 116" fill="none" xmlns="http://www.w3.org/2000/svg">
<g filter="url(#filter0_d_157_3632)">
<path d="M69.797 23.1742C74.5467 17.272 76.9216 14.3209 79.794 12.0996C83.1233 9.52508 86.9454 7.66092 91.0239 6.62242C94.5427 5.72643 98.3303 5.6719 105.906 5.56285L412.136 1.1542C438.852 0.769577 452.21 0.577267 460.292 6.14323C467.158 10.8711 471.811 18.1821 473.187 26.4034C474.808 36.0821 468.978 48.1024 457.318 72.143V72.143C452.385 82.3146 449.919 87.4004 446.171 91.1069C442.945 94.2977 439.053 96.7355 434.775 98.2457C429.804 100 424.152 100 412.847 100L106.585 100C77.3232 100 62.6922 100 54.8273 94.6067C45.7701 88.3958 40.7099 77.8284 41.5495 66.8784C42.2786 57.3698 51.4514 45.9713 69.797 23.1742V23.1742Z" fill="#363F69"/>
<path d="M412.158 2.69238C425.546 2.49964 435.48 2.35844 443.082 2.95117C450.686 3.5441 455.716 4.85973 459.42 7.41016C465.942 11.9016 470.362 18.8471 471.67 26.6572C472.412 31.0922 471.475 36.2069 468.793 43.3467C466.112 50.4842 461.778 59.4242 455.935 71.4717C450.951 81.7462 448.604 86.5358 445.089 90.0127C442.024 93.0439 438.327 95.3602 434.263 96.7949C429.6 98.4405 424.267 98.4619 412.848 98.4619L106.585 98.4619C91.9268 98.4619 81.028 98.4599 72.8066 97.792C64.5583 97.1219 59.2799 95.7946 55.6973 93.3379C47.093 87.4376 42.2854 77.3985 43.083 66.9961C43.4151 62.6647 45.6906 57.7202 50.3398 50.874C54.9738 44.0503 61.8053 35.5584 70.9951 24.1387C75.7913 18.1787 78.0402 15.4006 80.7354 13.3164C83.8981 10.8707 87.5289 9.09984 91.4033 8.11328C94.705 7.27258 98.2783 7.21169 105.928 7.10156L412.158 2.69238Z" stroke="url(#paint0_linear_157_3632)" stroke-opacity="0.8" stroke-width="3.07692"/>
<path d="M61.8243 23.1742C66.574 17.272 68.9489 14.3208 71.8213 12.0996C75.1507 9.52508 78.9728 7.66092 83.0513 6.62242C86.5701 5.72643 90.3577 5.6719 97.9329 5.56285L404.163 1.1542C430.879 0.769577 444.237 0.577267 452.32 6.14323C459.185 10.8711 463.838 18.1821 465.215 26.4034C466.835 36.0821 461.005 48.1024 449.346 72.143V72.143C444.413 82.3146 441.946 87.4004 438.199 91.1069C434.973 94.2977 431.081 96.7355 426.802 98.2457C421.832 100 416.179 100 404.875 100L98.6127 100C69.3506 100 54.7195 100 46.8546 94.6067C37.7975 88.3958 32.7373 77.8284 33.5769 66.8784C34.3059 57.3698 43.4787 45.9713 61.8243 23.1742V23.1742Z" fill="url(#paint1_linear_157_3632)"/>
<path d="M404.186 2.69238C417.574 2.49964 427.508 2.35844 435.109 2.95117C442.713 3.5441 447.744 4.85973 451.447 7.41016C457.969 11.9016 462.389 18.8471 463.697 26.6572C464.44 31.0922 463.503 36.2069 460.82 43.3467C458.139 50.4842 453.805 59.4242 447.962 71.4717C442.979 81.7462 440.631 86.5358 437.116 90.0127C434.052 93.0439 430.355 95.3602 426.29 96.7949C421.628 98.4405 416.294 98.4619 404.875 98.4619L98.6123 98.4619C83.9542 98.4619 73.0553 98.4599 64.834 97.792C56.5856 97.1219 51.3072 95.7946 47.7246 93.3379C39.1204 87.4376 34.3128 77.3985 35.1104 66.9961C35.4425 62.6647 37.7179 57.7202 42.3672 50.874C47.0012 44.0503 53.8327 35.5584 63.0225 24.1387C67.8187 18.1787 70.0675 15.4006 72.7627 13.3164C75.9254 10.8707 79.5563 9.09984 83.4307 8.11328C86.7323 7.27258 90.3057 7.21169 97.9551 7.10156L404.186 2.69238Z" stroke="url(#paint2_linear_157_3632)" stroke-opacity="0.8" stroke-width="3.07692"/>
</g>
<path d="M158.737 36C161.197 36 163.388 36.4597 165.307 37.379C167.254 38.2713 168.836 39.5557 170.053 41.2322C171.27 42.8816 172.094 44.8014 172.527 46.9916H164.131C163.672 45.8559 162.955 44.9772 161.982 44.3552C161.008 43.7063 159.886 43.3818 158.615 43.3818C156.858 43.3818 155.438 44.0443 154.356 45.3692C153.275 46.6671 152.734 48.4112 152.734 50.6014C152.734 52.7916 153.275 54.5492 154.356 55.8741C155.438 57.1991 156.858 57.8615 158.615 57.8615C159.886 57.8615 161.008 57.5371 161.982 56.8881C162.955 56.2392 163.672 55.3469 164.131 54.2112H172.527C171.878 57.5641 170.337 60.241 167.903 62.242C165.497 64.2159 162.441 65.2028 158.737 65.2028C155.898 65.2028 153.41 64.5944 151.274 63.3776C149.165 62.1338 147.529 60.4033 146.366 58.186C145.23 55.9688 144.663 53.4406 144.663 50.6014C144.663 47.7622 145.23 45.234 146.366 43.0168C147.529 40.7995 149.165 39.0825 151.274 37.8657C153.41 36.6219 155.898 36 158.737 36ZM189.679 41.9622C191.95 41.9622 193.978 42.4354 195.763 43.3818C197.574 44.3012 198.994 45.6531 200.022 47.4378C201.049 49.1953 201.563 51.2503 201.563 53.6028C201.563 55.9823 201.049 58.0508 200.022 59.8084C198.994 61.566 197.574 62.9179 195.763 63.8643C193.978 64.8107 191.95 65.2839 189.679 65.2839C187.408 65.2839 185.366 64.8107 183.554 63.8643C181.743 62.9179 180.323 61.566 179.296 59.8084C178.268 58.0508 177.754 55.9823 177.754 53.6028C177.754 51.2233 178.268 49.1548 179.296 47.3972C180.323 45.6396 181.743 44.3012 183.554 43.3818C185.366 42.4354 187.408 41.9622 189.679 41.9622ZM189.679 48.8573C188.57 48.8573 187.651 49.2629 186.921 50.0741C186.191 50.8853 185.826 52.0615 185.826 53.6028C185.826 55.1711 186.191 56.3608 186.921 57.172C187.651 57.9832 188.57 58.3888 189.679 58.3888C190.76 58.3888 191.666 57.9832 192.396 57.172C193.126 56.3338 193.491 55.1441 193.491 53.6028C193.491 52.0615 193.126 50.8853 192.396 50.0741C191.666 49.2629 190.76 48.8573 189.679 48.8573ZM222.805 42.0434C225.427 42.0434 227.482 42.9221 228.97 44.6797C230.457 46.4103 231.2 48.7762 231.2 51.7776V65H223.291V52.7916C223.291 51.4667 222.94 50.4392 222.237 49.7091C221.561 48.952 220.641 48.5734 219.479 48.5734C218.289 48.5734 217.343 48.9655 216.64 49.7496C215.936 50.5068 215.585 51.5613 215.585 52.9133V65H207.595V42.2461H215.585V46.0587C216.234 44.842 217.18 43.8685 218.424 43.1385C219.668 42.4084 221.128 42.0434 222.805 42.0434ZM251.826 58.186V65H248.54C245.755 65 243.579 64.3105 242.01 62.9315C240.442 61.5524 239.658 59.2676 239.658 56.0769V48.8979H236.738V42.2461H239.658V36.7301H247.648V42.2461H251.745V48.8979H247.648V56.2392C247.648 56.9422 247.797 57.4424 248.094 57.7399C248.419 58.0373 248.946 58.186 249.676 58.186H251.826ZM257.659 35.9594C257.659 34.7697 258.092 33.7963 258.957 33.0392C259.823 32.255 260.958 31.8629 262.364 31.8629C263.77 31.8629 264.892 32.255 265.731 33.0392C266.569 33.7963 266.988 34.7697 266.988 35.9594C266.988 37.0951 266.555 38.0415 265.69 38.7986C264.852 39.5557 263.743 39.9343 262.364 39.9343C260.958 39.9343 259.823 39.5557 258.957 38.7986C258.092 38.0415 257.659 37.0951 257.659 35.9594ZM266.299 42.2461V65H258.308V42.2461H266.299ZM288.755 42.0434C291.378 42.0434 293.433 42.9221 294.92 44.6797C296.407 46.4103 297.151 48.7762 297.151 51.7776V65H289.242V52.7916C289.242 51.4667 288.89 50.4392 288.187 49.7091C287.511 48.952 286.592 48.5734 285.429 48.5734C284.239 48.5734 283.293 48.9655 282.59 49.7496C281.887 50.5068 281.535 51.5613 281.535 52.9133V65H273.545V42.2461H281.535V46.0587C282.184 44.842 283.131 43.8685 284.374 43.1385C285.618 42.4084 287.078 42.0434 288.755 42.0434ZM327.591 42.2461V65H319.642V61.1874C318.993 62.4042 318.046 63.3776 316.803 64.1077C315.559 64.8378 314.099 65.2028 312.422 65.2028C309.799 65.2028 307.731 64.3375 306.217 62.607C304.729 60.8494 303.986 58.4564 303.986 55.428V42.2461H311.936V54.4545C311.936 55.7524 312.274 56.78 312.95 57.5371C313.653 58.2671 314.585 58.6322 315.748 58.6322C316.938 58.6322 317.884 58.2536 318.587 57.4965C319.29 56.7394 319.642 55.6713 319.642 54.2923V42.2461H327.591ZM356.696 53.1972C356.696 53.765 356.628 54.3869 356.493 55.0629H341.445C341.581 57.6317 342.703 58.9161 344.812 58.9161C345.596 58.9161 346.245 58.7268 346.759 58.3483C347.272 57.9697 347.624 57.4695 347.813 56.8476H356.25C355.952 58.4429 355.29 59.8895 354.262 61.1874C353.235 62.4583 351.937 63.4587 350.368 64.1888C348.8 64.9189 347.083 65.2839 345.217 65.2839C342.946 65.2839 340.932 64.8242 339.174 63.9049C337.444 62.9585 336.092 61.6065 335.118 59.849C334.145 58.0643 333.658 55.9823 333.658 53.6028C333.658 51.2233 334.145 49.1548 335.118 47.3972C336.092 45.6396 337.457 44.3012 339.215 43.3818C340.972 42.4354 342.973 41.9622 345.217 41.9622C347.489 41.9622 349.49 42.4219 351.22 43.3413C352.951 44.2606 354.289 45.572 355.236 47.2755C356.209 48.979 356.696 50.9529 356.696 53.1972ZM348.584 51.7371C348.611 50.5744 348.3 49.6956 347.651 49.1007C347.002 48.5058 346.191 48.2084 345.217 48.2084C344.163 48.2084 343.298 48.5058 342.622 49.1007C341.973 49.6956 341.594 50.5744 341.486 51.7371H348.584Z" fill="#E8EFF9"/>
<defs>
<filter id="filter0_d_157_3632" x="33.4863" y="0.987061" width="452.275" height="114.398" filterUnits="userSpaceOnUse" color-interpolation-filters="sRGB">
<feFlood flood-opacity="0" result="BackgroundImageFix"/>
<feColorMatrix in="SourceAlpha" type="matrix" values="0 0 0 0 0 0 0 0 0 0 0 0 0 0 0 0 0 0 127 0" result="hardAlpha"/>
<feOffset dx="7.69231" dy="10.7692"/>
<feGaussianBlur stdDeviation="2.30769"/>
<feComposite in2="hardAlpha" operator="out"/>
<feColorMatrix type="matrix" values="0 0 0 0 0 0 0 0 0 0 0 0 0 0 0 0 0 0 0.25 0"/>
<feBlend mode="normal" in2="BackgroundImageFix" result="effect1_dropShadow_157_3632"/>
<feBlend mode="normal" in="SourceGraphic" in2="effect1_dropShadow_157_3632" result="shape"/>
</filter>
<linearGradient id="paint0_linear_157_3632" x1="-61.2482" y1="-11.2662" x2="-14.6643" y2="252.887" gradientUnits="userSpaceOnUse">
<stop stop-color="#CC316F"/>
<stop offset="1" stop-color="#2B2D2F"/>
</linearGradient>
<linearGradient id="paint1_linear_157_3632" x1="0" y1="50" x2="484.335" y2="50" gradientUnits="userSpaceOnUse">
<stop stop-color="#A099FF"/>
<stop offset="1" stop-color="#153161"/>
</linearGradient>
<linearGradient id="paint2_linear_157_3632" x1="-69.2209" y1="-11.2662" x2="-22.637" y2="252.887" gradientUnits="userSpaceOnUse">
<stop stop-color="#CC316F"/>
<stop offset="1" stop-color="#2B2D2F"/>
</linearGradient>
</defs>
</svg>
