<svg width="1440" height="1024" viewBox="0 0 1440 1024" fill="none" xmlns="http://www.w3.org/2000/svg">
<g clip-path="url(#clip0_157_3642)">
<rect width="1440" height="1024" fill="#050E3D"/>
<g filter="url(#filter0_f_157_3642)">
<rect width="324.743" height="341.103" transform="matrix(-0.909601 -0.415483 -0.415483 0.909601 281.109 28.9248)" fill="#778CB1" fill-opacity="0.22"/>
</g>
<path d="M0 0H1440V1024H0V0Z" fill="url(#paint0_radial_157_3642)"/>
<g opacity="0.3">
<path d="M1540.59 102.743C1554.47 17.2056 1496.39 -63.3919 1410.85 -77.2765C1325.31 -91.1612 1244.72 -33.0752 1230.83 52.4622C1216.95 138 1275.03 218.597 1360.57 232.482C1446.11 246.366 1526.71 188.28 1540.59 102.743Z" fill="url(#paint1_radial_157_3642)"/>
<path d="M1439.25 207.254C1510.91 177.571 1544.94 95.415 1515.25 23.7539C1485.57 -47.9073 1403.41 -81.9371 1331.75 -52.2541C1260.09 -22.5711 1226.06 59.5845 1255.75 131.246C1285.43 202.907 1367.58 236.937 1439.25 207.254Z" fill="url(#paint2_radial_157_3642)"/>
<path style="mix-blend-mode:screen" d="M1277.14 59.7344C1270.84 47.7007 1272.77 30.3535 1276.57 18.6845C1284.75 -6.00795 1305.95 -23.824 1327.99 -36.1181C1396.91 -74.5633 1472.65 -26.9496 1479.06 3.31683C1485.47 33.5833 1455.2 49.6282 1413.94 39.7825C1372.68 29.9367 1341.58 75.8834 1313.09 76.2481C1302.11 77.0767 1291.23 73.7275 1282.61 66.8712C1280.37 64.8447 1278.52 62.4262 1277.14 59.7344Z" fill="url(#paint3_radial_157_3642)"/>
<g opacity="0.7">
<path style="mix-blend-mode:screen" d="M1301.23 11.0359C1297.98 1.26063 1295.26 -8.68708 1293.11 -18.7617C1272.44 1.25771 1258.83 27.4433 1254.32 55.8598C1249.81 84.2763 1254.65 113.389 1268.1 138.822C1262 116.482 1261.85 92.9361 1267.66 70.52C1273.47 48.1039 1285.05 27.5975 1301.23 11.0359V11.0359Z" fill="url(#paint4_radial_157_3642)"/>
<path style="mix-blend-mode:screen" d="M1457.61 -34.85C1433.76 -50.284 1405.58 -57.6616 1377.23 -55.8988C1348.87 -54.136 1321.83 -43.3258 1300.08 -25.0563C1302.06 -14.9514 1304.61 -4.96793 1307.73 4.84547C1328.37 -13.645 1354.26 -25.2187 1381.8 -28.2547C1409.34 -31.2907 1437.14 -25.6368 1461.31 -12.085C1460.69 -19.7606 1459.45 -27.3738 1457.61 -34.85V-34.85Z" fill="url(#paint5_radial_157_3642)"/>
</g>
<path style="mix-blend-mode:multiply" opacity="0.5" d="M1480.12 -22.521C1485.85 -7.09499 1488.12 9.39985 1486.78 25.7999C1485.44 42.2 1480.51 58.1058 1472.35 72.3953C1464.19 86.6848 1453 99.0099 1439.55 108.501C1426.11 117.992 1410.75 124.418 1394.56 127.326C1378.36 130.234 1361.72 129.553 1345.82 125.33C1329.92 121.107 1315.13 113.446 1302.51 102.888C1289.89 92.3289 1279.74 79.1295 1272.78 64.2205C1265.81 49.3116 1262.21 33.0563 1262.21 16.6014C1262.21 16.6014 1262.21 16.1326 1262.21 15.9242C1250.7 38.7893 1245.78 64.4042 1248 89.9053C1250.22 115.406 1259.48 139.789 1274.76 160.326C1290.04 180.863 1310.73 196.746 1334.52 206.199C1358.3 215.652 1384.25 218.303 1409.46 213.854C1434.67 209.406 1458.14 198.034 1477.26 181.01C1496.37 163.986 1510.38 141.98 1517.7 117.454C1525.03 92.9274 1525.39 66.8467 1518.74 42.1274C1512.1 17.408 1498.71 -4.97555 1480.07 -22.521H1480.12Z" fill="url(#paint6_radial_157_3642)"/>
<path style="mix-blend-mode:multiply" opacity="0.5" d="M1516.69 56.936V57.5091C1516.69 133.41 1456.99 194.932 1383.33 194.932C1315.19 194.932 1258.98 142.213 1251.01 74.1791C1251.32 149.819 1310.87 210.977 1384.32 210.977C1457.77 210.977 1517.68 149.455 1517.68 73.554C1517.67 68.0003 1517.34 62.452 1516.69 56.936V56.936Z" fill="url(#paint7_radial_157_3642)"/>
<path style="mix-blend-mode:multiply" opacity="0.5" d="M1361.34 175.442C1360.82 166.795 1375.09 158.877 1393.33 157.731C1411.56 156.584 1426.72 162.94 1427.24 171.327C1427.76 179.714 1413.49 187.893 1395.25 189.039C1377.02 190.185 1361.86 184.09 1361.34 175.442Z" fill="url(#paint8_radial_157_3642)"/>
<path style="mix-blend-mode:multiply" opacity="0.5" d="M1423.91 165.063C1418.39 159.853 1406.67 156.884 1393.33 157.717C1378.54 158.655 1366.29 164.073 1362.54 170.689C1367.75 175.898 1379.73 178.867 1393.12 178.034C1407.92 177.096 1420.16 171.678 1423.91 165.063Z" fill="url(#paint9_radial_157_3642)"/>
<path style="mix-blend-mode:multiply" opacity="0.5" d="M1311.34 93.1873C1321.75 77.9238 1344.57 75.4233 1362.75 87.5612C1380.93 99.699 1387.39 121.943 1377.18 137.207C1366.97 152.47 1343.95 155.023 1325.77 142.833C1307.58 130.643 1301.13 108.451 1311.34 93.1873Z" fill="url(#paint10_radial_157_3642)"/>
<path style="mix-blend-mode:multiply" opacity="0.5" d="M1362.75 87.5628C1346.34 76.6231 1326.29 77.5608 1314.67 89.0736C1308.42 103.92 1315.3 123.039 1331.65 134.03C1348.01 145.022 1368.38 143.98 1379.68 132.468C1385.99 117.413 1379.11 98.5025 1362.75 87.5628Z" fill="url(#paint11_radial_157_3642)"/>
<path style="mix-blend-mode:multiply" opacity="0.5" d="M1417.39 16.8831C1414.63 28.3958 1401.29 35.0638 1387.59 31.7819C1373.89 28.5 1365.04 16.5184 1367.8 5.00568C1370.56 -6.50704 1383.89 -13.175 1397.59 -9.89312C1411.3 -6.61121 1420.15 5.37035 1417.39 16.8831Z" fill="url(#paint12_radial_157_3642)"/>
<path style="mix-blend-mode:multiply" opacity="0.5" d="M1387.59 31.7697C1392.98 33.3994 1398.77 33.1298 1403.98 31.0058C1409.2 28.8819 1413.53 25.0324 1416.25 20.1007C1415.72 14.5815 1413.48 9.36451 1409.85 5.18062C1406.21 0.99672 1401.35 -1.94447 1395.96 -3.2309C1390.57 -4.51733 1384.91 -4.08455 1379.77 -1.99318C1374.64 0.0981888 1370.29 3.74338 1367.33 8.43167C1367.54 14.0499 1369.66 19.4279 1373.35 23.673C1377.03 27.9181 1382.06 30.7751 1387.59 31.7697V31.7697Z" fill="url(#paint13_radial_157_3642)"/>
<path style="mix-blend-mode:multiply" opacity="0.5" d="M1417.44 132.572C1408.07 121.111 1411.56 102.722 1425.26 91.5742C1438.96 80.4261 1457.66 80.6866 1466.93 92.1993C1476.2 103.712 1472.77 122.101 1459.07 133.249C1445.37 144.397 1426.77 144.085 1417.44 132.572Z" fill="url(#paint14_radial_157_3642)"/>
<path style="mix-blend-mode:multiply" opacity="0.5" d="M1425.27 91.3747C1412.93 101.429 1408.86 117.422 1414.85 128.83C1424.8 137.165 1441.21 136.436 1453.56 126.382C1465.91 116.328 1469.97 100.335 1463.98 88.9263C1454.03 80.956 1437.62 81.529 1425.27 91.3747Z" fill="url(#paint15_radial_157_3642)"/>
<path style="mix-blend-mode:multiply" opacity="0.5" d="M1319.66 -10.4682C1325.18 -6.45701 1322.79 6.20177 1314.45 17.8187C1306.12 29.4356 1294.6 35.5305 1289.08 31.5193C1283.56 27.5081 1286.01 14.7972 1294.29 3.23243C1302.57 -8.33238 1314.14 -14.5315 1319.66 -10.4682Z" fill="url(#paint16_radial_157_3642)"/>
<path style="mix-blend-mode:multiply" opacity="0.5" d="M1294.6 32.6636C1302.83 30.321 1309.91 25.0375 1314.5 17.8169C1321.37 8.38792 1324.29 -1.77036 1322.16 -7.39648C1313.93 -5.05387 1306.85 0.229575 1302.26 7.45023C1295.17 16.8792 1292.25 27.0375 1294.6 32.6636Z" fill="url(#paint17_radial_157_3642)"/>
<path style="mix-blend-mode:multiply" opacity="0.5" d="M1264.18 111.052C1271.68 106.677 1285.02 115.845 1294.5 131.525C1303.98 147.206 1304.92 163.563 1297.73 167.991C1290.54 172.419 1276.89 163.25 1267.46 147.518C1258.04 131.786 1256.73 115.48 1264.18 111.052Z" fill="url(#paint18_radial_157_3642)"/>
<path style="mix-blend-mode:multiply" opacity="0.5" d="M1301.8 162.177C1303.89 154.936 1301.28 143.111 1294.51 131.546C1286.96 118.783 1276.59 110.344 1268.99 109.979C1266.9 117.22 1269.51 129.045 1276.28 140.61C1283.83 153.373 1294.2 161.812 1301.8 162.177Z" fill="url(#paint19_radial_157_3642)"/>
<path style="mix-blend-mode:multiply" opacity="0.5" d="M1406.56 202.511C1405.36 197.771 1412.5 192.092 1422.56 189.332C1432.61 186.571 1441.62 188.654 1442.82 193.447C1444.02 198.24 1436.88 203.866 1426.88 206.575C1416.88 209.283 1407.76 207.252 1406.56 202.511Z" fill="url(#paint20_radial_157_3642)"/>
<path style="mix-blend-mode:multiply" opacity="0.5" d="M1440.49 190.319C1434.88 187.844 1428.56 187.51 1422.72 189.381C1414.54 191.465 1408.29 195.736 1407.09 199.8C1412.71 202.297 1419.06 202.631 1424.91 200.737C1432.67 198.654 1438.92 194.382 1440.49 190.319Z" fill="url(#paint21_radial_157_3642)"/>
<path style="mix-blend-mode:multiply" opacity="0.5" d="M1260.48 65.7881C1265.38 65.7881 1269.76 73.7063 1270.28 84.0209C1270.8 94.3355 1267.2 102.879 1262.31 103.139C1257.41 103.4 1253.03 95.2211 1252.51 84.9065C1251.99 74.592 1255.53 66.0486 1260.48 65.7881Z" fill="url(#paint22_radial_157_3642)"/>
<path style="mix-blend-mode:multiply" opacity="0.5" d="M1265.91 101.323C1269.44 96.2916 1271 90.1344 1270.28 84.0274C1269.87 75.6403 1266.85 68.7119 1263.15 66.5239C1259.59 71.5261 1258.03 77.6749 1258.77 83.7669C1259.19 92.154 1262.16 99.1346 1265.91 101.323Z" fill="url(#paint23_radial_157_3642)"/>
<path style="mix-blend-mode:multiply" opacity="0.5" d="M1341.13 197.213C1342.28 192.42 1351.55 190.493 1361.39 192.837C1371.24 195.181 1378.69 200.911 1377.54 205.704C1376.4 210.497 1367.13 212.476 1357.33 210.132C1347.54 207.788 1340.04 202.005 1341.13 197.213Z" fill="url(#paint24_radial_157_3642)"/>
<path style="mix-blend-mode:multiply" opacity="0.5" d="M1376.76 201.739C1372.85 196.922 1367.28 193.744 1361.14 192.831C1352.96 190.903 1345.51 191.841 1342.28 194.81C1346.18 199.65 1351.76 202.848 1357.91 203.77C1366.14 205.958 1373.64 204.76 1376.76 201.739Z" fill="url(#paint25_radial_157_3642)"/>
<path style="mix-blend-mode:multiply" opacity="0.5" d="M1279.77 91.6308C1282.21 90.8494 1285.55 94.3396 1287.22 99.4969C1288.88 104.654 1288.26 109.447 1285.81 110.228C1283.36 111.01 1280.08 107.519 1278.41 102.362C1276.75 97.2048 1277.32 92.4122 1279.77 91.6308Z" fill="url(#paint26_radial_157_3642)"/>
<path style="mix-blend-mode:multiply" opacity="0.5" d="M1287.37 108.803C1288.55 105.807 1288.55 102.474 1287.37 99.4779C1287 97.8082 1286.28 96.2382 1285.24 94.879C1284.21 93.5198 1282.89 92.4045 1281.37 91.6118C1280.22 94.6126 1280.22 97.9358 1281.37 100.937C1281.75 102.602 1282.47 104.168 1283.51 105.526C1284.54 106.884 1285.86 108.002 1287.37 108.803V108.803Z" fill="url(#paint27_radial_157_3642)"/>
<path style="mix-blend-mode:multiply" opacity="0.5" d="M1362.33 17.1484C1363.75 18.6268 1364.68 20.5062 1364.99 22.5302C1365.29 24.5542 1364.97 26.6243 1364.06 28.4581C1363.15 30.2919 1361.7 31.8001 1359.9 32.7769C1358.1 33.7537 1356.04 34.1516 1354.01 33.9162C1351.97 33.6809 1350.06 32.8238 1348.53 31.4619C1347 30.1 1345.93 28.2996 1345.46 26.3063C1344.99 24.313 1345.15 22.2238 1345.92 20.3239C1346.68 18.4239 1348.01 16.8056 1349.73 15.6898C1351.6 14.2345 1353.97 13.572 1356.33 13.8448C1358.68 14.1175 1360.84 15.3036 1362.33 17.1484V17.1484Z" fill="url(#paint28_radial_157_3642)"/>
<path style="mix-blend-mode:multiply" opacity="0.5" d="M1348.42 30.1136C1350.02 30.8601 1351.8 31.1712 1353.56 31.0157C1355.33 30.8603 1357.02 30.2438 1358.47 29.228C1360.16 28.2542 1361.51 26.7937 1362.36 25.0372C1363.21 23.2806 1363.5 21.3098 1363.21 19.3823C1361.61 18.6252 1359.83 18.3083 1358.06 18.4639C1356.3 18.6195 1354.6 19.2421 1353.16 20.2678C1351.48 21.2522 1350.13 22.7145 1349.29 24.4681C1348.44 26.2217 1348.14 28.1872 1348.42 30.1136V30.1136Z" fill="url(#paint29_radial_157_3642)"/>
<path style="mix-blend-mode:multiply" opacity="0.5" d="M1452.14 165.379C1453.24 167.254 1451.36 170.588 1448.03 172.255C1444.69 173.922 1441.1 174.183 1440.01 172.255C1438.91 170.328 1440.74 167.046 1444.12 165.379C1447.51 163.712 1450.89 163.452 1452.14 165.379Z" fill="url(#paint30_radial_157_3642)"/>
<path style="mix-blend-mode:multiply" opacity="0.5" d="M1305.03 135.839C1302.84 136.933 1299.51 134.693 1297.58 130.629C1295.66 126.566 1295.86 122.763 1298 121.669C1300.14 120.575 1303.52 122.815 1305.45 126.879C1307.38 130.942 1307.01 134.745 1305.03 135.839Z" fill="url(#paint31_radial_157_3642)"/>
<path style="mix-blend-mode:multiply" opacity="0.5" d="M1312.22 144.536C1310.92 145.213 1308.89 143.858 1307.74 141.566C1306.6 139.274 1306.7 136.826 1307.74 136.357C1308.78 135.888 1311.08 137.034 1312.22 139.378C1313.37 141.722 1313.58 143.91 1312.22 144.536Z" fill="url(#paint32_radial_157_3642)"/>
<path style="mix-blend-mode:multiply" opacity="0.5" d="M1275.19 88.5463C1273.99 88.5463 1272.79 87.0877 1272.53 85.0039C1272.27 82.9202 1273.05 81.0969 1274.25 80.9406C1275.45 80.7844 1276.59 82.3993 1276.85 84.483C1277.11 86.5668 1276.33 88.39 1275.19 88.5463Z" fill="url(#paint33_radial_157_3642)"/>
<path style="mix-blend-mode:multiply" opacity="0.5" d="M1325.86 186.625C1324.51 188.344 1320.66 187.771 1317.89 185.374C1315.13 182.978 1313.57 179.644 1314.93 177.925C1316.28 176.206 1319.82 176.779 1322.84 179.175C1325.87 181.571 1327.06 185.114 1325.86 186.625Z" fill="url(#paint34_radial_157_3642)"/>
<path style="mix-blend-mode:multiply" opacity="0.5" d="M1338.41 188.753C1337.63 189.794 1335.44 189.482 1333.62 188.023C1331.79 186.565 1330.96 184.533 1331.79 183.491C1332.63 182.449 1334.76 182.762 1336.59 184.273C1338.41 185.783 1339.24 187.763 1338.41 188.753Z" fill="url(#paint35_radial_157_3642)"/>
<path style="mix-blend-mode:multiply" opacity="0.5" d="M1315.46 171.014C1314.62 172.056 1312.49 171.691 1310.61 170.232C1308.74 168.774 1308.01 166.742 1308.79 165.7C1309.57 164.658 1311.81 165.023 1313.63 166.482C1315.46 167.94 1316.5 169.972 1315.46 171.014Z" fill="url(#paint36_radial_157_3642)"/>
<path style="mix-blend-mode:screen" opacity="0.5" d="M1331.54 -29.9012C1330.81 -31.9849 1333.15 -34.6938 1336.75 -35.9962C1340.34 -37.2985 1343.94 -36.6734 1344.67 -34.6417C1345.39 -32.6101 1343.1 -29.8491 1339.46 -28.5468C1335.81 -27.2444 1332.27 -27.8695 1331.54 -29.9012ZM1327.79 -19.4824C1330.03 -20.2638 1331.43 -21.9309 1330.96 -23.1811C1330.5 -24.4314 1328.36 -24.796 1326.17 -24.0146C1323.98 -23.2332 1322.53 -21.5662 1322.99 -20.3159C1323.46 -19.0657 1325.86 -18.5968 1327.79 -19.3782V-19.4824ZM1354.93 -29.5365C1357.12 -30.3179 1358.57 -31.9849 1358.11 -33.2352C1357.64 -34.4854 1355.5 -34.8501 1353.31 -34.0687C1351.13 -33.2873 1349.67 -31.6203 1350.08 -30.3179C1350.5 -29.0156 1352.69 -28.4426 1354.93 -29.4323V-29.5365ZM1450.05 -5.41714C1450.68 -7.55298 1454.17 -8.33438 1457.86 -7.24041C1461.56 -6.14644 1464.06 -3.54175 1463.44 -1.458C1462.81 0.625748 1459.32 1.45925 1455.63 0.313186C1451.93 -0.832876 1449.43 -3.2292 1450.05 -5.31295V-5.41714ZM1468.6 8.80447C1470.89 9.48169 1472.97 8.80446 1473.39 7.71049C1473.81 6.61652 1472.24 4.84533 1470 4.16811C1467.76 3.49089 1465.63 4.16812 1465.21 5.31418C1464.79 6.46024 1466.51 8.02305 1468.6 8.90864V8.80447Z" fill="url(#paint37_radial_157_3642)"/>
</g>
<g opacity="0.54">
<path d="M1166.9 867C1210.93 867 1246.62 858.331 1246.62 847.638C1246.62 836.944 1210.93 828.275 1166.9 828.275C1122.87 828.275 1087.18 836.944 1087.18 847.638C1087.18 858.331 1122.87 867 1166.9 867Z" fill="#3C4E60"/>
<path d="M1168.09 351.57H1169.06C1171.66 351.57 1173.82 353.734 1173.82 356.33V842.878C1173.82 845.474 1171.66 847.637 1169.06 847.637H1168.09C1165.49 847.637 1163.33 845.474 1163.33 842.878V356.33C1163.33 353.734 1165.49 351.57 1168.09 351.57Z" fill="#3C4E60"/>
<path d="M1062.08 193.209L1062.84 192.777C1065 191.37 1067.92 192.019 1069.22 194.183L1216.12 424.801C1217.52 426.964 1216.87 429.885 1214.71 431.183L1213.95 431.616C1211.79 433.022 1208.87 432.373 1207.57 430.209L1060.68 199.591C1059.27 197.428 1059.92 194.615 1062.08 193.209Z" fill="#3C4E60"/>
<path d="M1072.47 162.382L1075.93 161.949C1083.28 160.976 1089.99 166.168 1090.96 173.632L1095.4 208.138C1096.37 215.493 1091.18 222.2 1083.72 223.173L1080.26 223.606C1072.9 224.58 1066.19 219.387 1065.22 211.924L1060.79 177.418C1059.92 170.062 1065.11 163.356 1072.47 162.382Z" fill="#3C4E60"/>
<path d="M1049.32 147.562L1068.9 145.074C1074.09 144.425 1078.96 148.103 1079.61 153.295L1086.31 205.433C1086.96 210.625 1083.29 215.493 1078.09 216.142L1058.51 218.63C1053.32 219.279 1048.45 215.601 1047.81 210.409L1041.1 158.271C1040.34 152.971 1044.02 148.211 1049.32 147.562Z" fill="#E8E8E8"/>
<path d="M1065.11 156.215L1074.41 155.025C1075.5 154.917 1076.47 155.674 1076.69 156.756V157.189C1076.79 158.271 1076.04 159.244 1074.96 159.46L1065.65 160.65C1064.57 160.758 1063.6 160.001 1063.38 158.92V158.487C1063.27 157.405 1064.03 156.432 1065.11 156.215Z" fill="#3C4E60"/>
<path d="M1046.62 156.215L1055.92 155.025C1057 154.917 1057.97 155.674 1058.19 156.756V157.189C1058.3 158.271 1057.54 159.244 1056.46 159.46L1047.16 160.65C1046.07 160.758 1045.1 160.001 1044.88 158.92V158.487C1044.67 157.297 1045.53 156.323 1046.62 156.215Z" fill="#3C4E60"/>
<path d="M1066.09 164.112L1075.39 162.922C1076.47 162.814 1077.44 163.571 1077.66 164.653V165.085C1077.77 166.167 1077.01 167.141 1075.93 167.357L1066.63 168.547C1065.55 168.655 1064.57 167.898 1064.36 166.816V166.383C1064.25 165.302 1065.01 164.22 1066.09 164.112Z" fill="#3C4E60"/>
<path d="M1048.02 166.493L1057.32 165.303C1058.41 165.195 1059.38 165.952 1059.6 167.033V167.466C1059.7 168.548 1058.95 169.521 1057.86 169.738L1048.56 170.928C1047.48 171.036 1046.51 170.279 1046.29 169.197V168.764C1046.07 167.574 1046.83 166.601 1048.02 166.493Z" fill="#3C4E60"/>
<path d="M1066.74 169.521L1076.04 168.332C1077.12 168.223 1078.09 168.981 1078.31 170.062V170.495C1078.42 171.577 1077.66 172.55 1076.58 172.767L1067.28 173.956C1066.2 174.065 1065.22 173.307 1065.01 172.226V171.793C1064.9 170.711 1065.65 169.63 1066.74 169.521Z" fill="#3C4E60"/>
<path d="M1049 174.28L1058.3 173.09C1059.38 172.982 1060.35 173.739 1060.57 174.821V175.254C1060.68 176.335 1059.92 177.309 1058.84 177.525L1049.54 178.715C1048.46 178.823 1047.48 178.066 1047.27 176.984V176.552C1047.16 175.47 1047.91 174.497 1049 174.28Z" fill="#3C4E60"/>
<path d="M1068.14 179.906L1077.44 178.716C1078.53 178.608 1079.5 179.365 1079.72 180.447V180.879C1079.82 181.961 1079.07 182.934 1077.98 183.151L1068.68 184.341C1067.6 184.449 1066.63 183.692 1066.41 182.61V182.177C1066.3 180.987 1067.06 180.014 1068.14 179.906Z" fill="#3C4E60"/>
<path d="M1049.97 182.177L1059.27 180.987C1060.35 180.879 1061.33 181.636 1061.54 182.718V183.15C1061.65 184.232 1060.89 185.205 1059.81 185.422L1050.51 186.612C1049.43 186.72 1048.45 185.963 1048.24 184.881V184.448C1048.13 183.367 1048.89 182.285 1049.97 182.177Z" fill="#3C4E60"/>
<path d="M1069.12 187.693L1078.42 186.503C1079.5 186.395 1080.47 187.152 1080.69 188.234V188.667C1080.8 189.749 1080.04 190.722 1078.96 190.938L1069.66 192.128C1068.58 192.236 1067.6 191.479 1067.39 190.398V189.965C1067.28 188.883 1068.03 187.91 1069.12 187.693Z" fill="#3C4E60"/>
<path d="M1050.94 190.073L1060.24 188.883C1061.33 188.775 1062.3 189.532 1062.52 190.614V191.047C1062.62 192.128 1061.87 193.102 1060.79 193.318L1051.48 194.508C1050.4 194.616 1049.43 193.859 1049.21 192.777V192.345C1049.1 191.155 1049.86 190.181 1050.94 190.073Z" fill="#3C4E60"/>
<path d="M1070.09 195.591L1079.39 194.401C1080.47 194.293 1081.45 195.05 1081.66 196.132V196.564C1081.77 197.646 1081.01 198.62 1079.93 198.836L1070.63 200.026C1069.55 200.134 1068.57 199.377 1068.36 198.295V197.862C1068.25 196.781 1069.01 195.699 1070.09 195.591Z" fill="#3C4E60"/>
<path d="M1051.7 195.481L1061 194.291C1062.08 194.183 1063.06 194.94 1063.27 196.022V196.454C1063.38 197.536 1062.63 198.51 1061.54 198.726L1052.24 199.916C1051.16 200.024 1050.19 199.267 1049.97 198.185V197.752C1049.86 196.563 1050.62 195.589 1051.7 195.481Z" fill="#3C4E60"/>
<path d="M1070.85 200.89L1080.15 199.7C1081.23 199.592 1082.2 200.349 1082.42 201.43V201.863C1082.53 202.945 1081.77 203.918 1080.69 204.135L1071.39 205.325C1070.3 205.433 1069.33 204.676 1069.11 203.594V203.161C1069.01 202.079 1069.76 201.106 1070.85 200.89Z" fill="#3C4E60"/>
<path d="M1053 205.757L1062.3 204.567C1063.38 204.459 1064.36 205.216 1064.57 206.298V206.731C1064.68 207.813 1063.92 208.786 1062.84 209.002L1053.54 210.192C1052.46 210.3 1051.48 209.543 1051.27 208.462V208.029C1051.16 206.947 1051.92 205.974 1053 205.757Z" fill="#3C4E60"/>
<path d="M1163.33 378.18C1163.33 378.18 1171.12 381.101 1173.82 380.236C1176.53 379.37 1173.61 375.584 1175.66 373.205C1178.26 370.176 1180.21 369.419 1181.07 365.849C1182.04 362.171 1178.69 358.385 1175.34 354.707C1172.31 351.246 1168.2 346.703 1165.17 347.785C1162.14 348.866 1161.17 355.897 1161.38 359.575C1161.49 360.765 1161.71 362.496 1161.93 366.282C1162.03 367.363 1162.03 368.553 1162.14 369.851C1162.25 374.611 1161.38 377.423 1163.33 378.18Z" fill="#E8E8E8"/>
</g>
</g>
<defs>
<filter id="filter0_f_157_3642" x="-209.009" y="-159.009" width="543.128" height="551.212" filterUnits="userSpaceOnUse" color-interpolation-filters="sRGB">
<feFlood flood-opacity="0" result="BackgroundImageFix"/>
<feBlend mode="normal" in="SourceGraphic" in2="BackgroundImageFix" result="shape"/>
<feGaussianBlur stdDeviation="26.5047" result="effect1_foregroundBlur_157_3642"/>
</filter>
<radialGradient id="paint0_radial_157_3642" cx="0" cy="0" r="1" gradientUnits="userSpaceOnUse" gradientTransform="translate(1321.85 969.403) rotate(-150.161) scale(1221.65 1505.02)">
<stop stop-color="#1F0252"/>
<stop offset="0.963542" stop-color="#020239"/>
</radialGradient>
<radialGradient id="paint1_radial_157_3642" cx="0" cy="0" r="1" gradientUnits="userSpaceOnUse" gradientTransform="translate(1384.29 76.6541) scale(158.625 158.625)">
<stop offset="0.06" stop-color="#FCE085"/>
<stop offset="0.41" stop-color="#FCDF86" stop-opacity="0.99"/>
<stop offset="0.54" stop-color="#FBDD89" stop-opacity="0.97"/>
<stop offset="0.63" stop-color="#FAD98F" stop-opacity="0.92"/>
<stop offset="0.7" stop-color="#F9D397" stop-opacity="0.85"/>
<stop offset="0.76" stop-color="#F8CBA1" stop-opacity="0.76"/>
<stop offset="0.82" stop-color="#F5C2AE" stop-opacity="0.66"/>
<stop offset="0.87" stop-color="#F3B6BE" stop-opacity="0.53"/>
<stop offset="0.91" stop-color="#F0A9D0" stop-opacity="0.38"/>
<stop offset="0.96" stop-color="#ED9AE4" stop-opacity="0.21"/>
<stop offset="1" stop-color="#E988FD" stop-opacity="0"/>
</radialGradient>
<radialGradient id="paint2_radial_157_3642" cx="0" cy="0" r="1" gradientUnits="userSpaceOnUse" gradientTransform="translate(1398.97 -45.4394) scale(276.566 276.566)">
<stop offset="0.06" stop-color="#FCE085"/>
<stop offset="0.96" stop-color="#E988FD"/>
</radialGradient>
<radialGradient id="paint3_radial_157_3642" cx="0" cy="0" r="1" gradientUnits="userSpaceOnUse" gradientTransform="translate(1330.44 -221.611) rotate(14.9586) scale(356.573 313.209)">
<stop offset="0.06" stop-color="#FCE085"/>
<stop offset="0.96" stop-color="#E988FD"/>
</radialGradient>
<radialGradient id="paint4_radial_157_3642" cx="0" cy="0" r="1" gradientUnits="userSpaceOnUse" gradientTransform="translate(1395.58 -43.9751) scale(205.772 205.77)">
<stop offset="0.06" stop-color="#FCE085"/>
<stop offset="0.96" stop-color="#E988FD"/>
</radialGradient>
<radialGradient id="paint5_radial_157_3642" cx="0" cy="0" r="1" gradientUnits="userSpaceOnUse" gradientTransform="translate(1395.56 -43.9664) scale(205.77 205.77)">
<stop offset="0.06" stop-color="#FCE085"/>
<stop offset="0.96" stop-color="#E988FD"/>
</radialGradient>
<radialGradient id="paint6_radial_157_3642" cx="0" cy="0" r="1" gradientUnits="userSpaceOnUse" gradientTransform="translate(1398.7 -7.67428) scale(242.079 242.08)">
<stop offset="0.06" stop-color="#FCE085"/>
<stop offset="0.96" stop-color="#E988FD"/>
</radialGradient>
<radialGradient id="paint7_radial_157_3642" cx="0" cy="0" r="1" gradientUnits="userSpaceOnUse" gradientTransform="translate(1397.03 66.5213) scale(177.952 177.952)">
<stop offset="0.06" stop-color="#FCE085"/>
<stop offset="0.96" stop-color="#E988FD"/>
</radialGradient>
<radialGradient id="paint8_radial_157_3642" cx="0" cy="0" r="1" gradientUnits="userSpaceOnUse" gradientTransform="translate(1414.98 202.555) rotate(176.44) scale(61.6264 61.6269)">
<stop offset="0.06" stop-color="#FCE085"/>
<stop offset="0.96" stop-color="#E988FD"/>
</radialGradient>
<radialGradient id="paint9_radial_157_3642" cx="0" cy="0" r="1" gradientUnits="userSpaceOnUse" gradientTransform="translate(1414.99 202.541) rotate(176.44) scale(61.6264 61.6269)">
<stop offset="0.06" stop-color="#FCE085"/>
<stop offset="0.96" stop-color="#E988FD"/>
</radialGradient>
<radialGradient id="paint10_radial_157_3642" cx="0" cy="0" r="1" gradientUnits="userSpaceOnUse" gradientTransform="translate(1316.14 183.214) rotate(-145.993) scale(74.0134 130.596)">
<stop offset="0.06" stop-color="#FCE085"/>
<stop offset="0.96" stop-color="#E988FD"/>
</radialGradient>
<radialGradient id="paint11_radial_157_3642" cx="0" cy="0" r="1" gradientUnits="userSpaceOnUse" gradientTransform="translate(1327.28 51.0972) scale(94.0812 94.0813)">
<stop offset="0.06" stop-color="#FCE085"/>
<stop offset="0.96" stop-color="#E988FD"/>
</radialGradient>
<radialGradient id="paint12_radial_157_3642" cx="0" cy="0" r="1" gradientUnits="userSpaceOnUse" gradientTransform="translate(1376.35 -48.2003) rotate(13.3394) scale(47.4135 84.0979)">
<stop offset="0.06" stop-color="#FCE085"/>
<stop offset="0.96" stop-color="#E988FD"/>
</radialGradient>
<radialGradient id="paint13_radial_157_3642" cx="0" cy="0" r="1" gradientUnits="userSpaceOnUse" gradientTransform="translate(1417.33 45.877) rotate(159.71) scale(60.533 60.5329)">
<stop offset="0.06" stop-color="#FCE085"/>
<stop offset="0.96" stop-color="#E988FD"/>
</radialGradient>
<radialGradient id="paint14_radial_157_3642" cx="0" cy="0" r="1" gradientUnits="userSpaceOnUse" gradientTransform="translate(1492.85 145.689) rotate(141.072) scale(59.8574 105.639)">
<stop offset="0.06" stop-color="#FCE085"/>
<stop offset="0.96" stop-color="#E988FD"/>
</radialGradient>
<radialGradient id="paint15_radial_157_3642" cx="0" cy="0" r="1" gradientUnits="userSpaceOnUse" gradientTransform="translate(1388.8 109.978) rotate(-72.9099) scale(76.0048 76.0051)">
<stop offset="0.06" stop-color="#FCE085"/>
<stop offset="0.96" stop-color="#E988FD"/>
</radialGradient>
<radialGradient id="paint16_radial_157_3642" cx="0" cy="0" r="1" gradientUnits="userSpaceOnUse" gradientTransform="translate(1276.2 7.86754) rotate(-53.7895) scale(48.6037 48.604)">
<stop offset="0.06" stop-color="#FCE085"/>
<stop offset="0.96" stop-color="#E988FD"/>
</radialGradient>
<radialGradient id="paint17_radial_157_3642" cx="0" cy="0" r="1" gradientUnits="userSpaceOnUse" gradientTransform="translate(1276.22 7.82372) rotate(-53.7898) scale(48.6036 48.6036)">
<stop offset="0.06" stop-color="#FCE085"/>
<stop offset="0.96" stop-color="#E988FD"/>
</radialGradient>
<radialGradient id="paint18_radial_157_3642" cx="0" cy="0" r="1" gradientUnits="userSpaceOnUse" gradientTransform="translate(1250.9 156.332) rotate(-120.669) scale(61.6175 61.6173)">
<stop offset="0.06" stop-color="#FCE085"/>
<stop offset="0.96" stop-color="#E988FD"/>
</radialGradient>
<radialGradient id="paint19_radial_157_3642" cx="0" cy="0" r="1" gradientUnits="userSpaceOnUse" gradientTransform="translate(1250.91 156.353) rotate(-120.669) scale(61.6178 61.618)">
<stop offset="0.06" stop-color="#FCE085"/>
<stop offset="0.96" stop-color="#E988FD"/>
</radialGradient>
<radialGradient id="paint20_radial_157_3642" cx="0" cy="0" r="1" gradientUnits="userSpaceOnUse" gradientTransform="translate(1438.9 211.899) rotate(165.92) scale(34.9026 34.9028)">
<stop offset="0.06" stop-color="#FCE085"/>
<stop offset="0.96" stop-color="#E988FD"/>
</radialGradient>
<radialGradient id="paint21_radial_157_3642" cx="0" cy="0" r="1" gradientUnits="userSpaceOnUse" gradientTransform="translate(1438.91 211.896) rotate(165.92) scale(34.903 34.9028)">
<stop offset="0.06" stop-color="#FCE085"/>
<stop offset="0.96" stop-color="#E988FD"/>
</radialGradient>
<radialGradient id="paint22_radial_157_3642" cx="0" cy="0" r="1" gradientUnits="userSpaceOnUse" gradientTransform="translate(1244.52 95.7804) rotate(-92.8399) scale(34.9028 34.9019)">
<stop offset="0.06" stop-color="#FCE085"/>
<stop offset="0.96" stop-color="#E988FD"/>
</radialGradient>
<radialGradient id="paint23_radial_157_3642" cx="0" cy="0" r="1" gradientUnits="userSpaceOnUse" gradientTransform="translate(1244.53 95.7869) rotate(-92.84) scale(34.9028 34.9023)">
<stop offset="0.06" stop-color="#FCE085"/>
<stop offset="0.96" stop-color="#E988FD"/>
</radialGradient>
<radialGradient id="paint24_radial_157_3642" cx="0" cy="0" r="1" gradientUnits="userSpaceOnUse" gradientTransform="translate(1366.09 220.598) rotate(-166.86) scale(34.9028 34.9028)">
<stop offset="0.06" stop-color="#FCE085"/>
<stop offset="0.96" stop-color="#E988FD"/>
</radialGradient>
<radialGradient id="paint25_radial_157_3642" cx="0" cy="0" r="1" gradientUnits="userSpaceOnUse" gradientTransform="translate(1366.09 220.592) rotate(-166.86) scale(34.9028 34.9028)">
<stop offset="0.06" stop-color="#FCE085"/>
<stop offset="0.96" stop-color="#E988FD"/>
</radialGradient>
<radialGradient id="paint26_radial_157_3642" cx="0" cy="0" r="1" gradientUnits="userSpaceOnUse" gradientTransform="translate(1270.05 110.564) rotate(-108.072) scale(18.22 18.2198)">
<stop offset="0.06" stop-color="#FCE085"/>
<stop offset="0.96" stop-color="#E988FD"/>
</radialGradient>
<radialGradient id="paint27_radial_157_3642" cx="0" cy="0" r="1" gradientUnits="userSpaceOnUse" gradientTransform="translate(1270.05 110.545) rotate(-108.073) scale(18.22 18.2203)">
<stop offset="0.06" stop-color="#FCE085"/>
<stop offset="0.96" stop-color="#E988FD"/>
</radialGradient>
<radialGradient id="paint28_radial_157_3642" cx="0" cy="0" r="1" gradientUnits="userSpaceOnUse" gradientTransform="translate(1364.58 52.8691) rotate(-32.7352) scale(18.2073 31.7587)">
<stop offset="0.06" stop-color="#FCE085"/>
<stop offset="0.96" stop-color="#E988FD"/>
</radialGradient>
<radialGradient id="paint29_radial_157_3642" cx="0" cy="0" r="1" gradientUnits="userSpaceOnUse" gradientTransform="translate(1364.57 52.8629) rotate(-32.7347) scale(18.2076 31.7589)">
<stop offset="0.06" stop-color="#FCE085"/>
<stop offset="0.96" stop-color="#E988FD"/>
</radialGradient>
<radialGradient id="paint30_radial_157_3642" cx="0" cy="0" r="1" gradientUnits="userSpaceOnUse" gradientTransform="translate(1419.87 89.319) rotate(-29.8869) scale(81.127 66.9873)">
<stop offset="0.06" stop-color="#FCE085"/>
<stop offset="0.96" stop-color="#E988FD"/>
</radialGradient>
<radialGradient id="paint31_radial_157_3642" cx="0" cy="0" r="1" gradientUnits="userSpaceOnUse" gradientTransform="translate(1344.3 108.927) rotate(63.1781) scale(89.9305 74.6043)">
<stop offset="0.06" stop-color="#FCE085"/>
<stop offset="0.96" stop-color="#E988FD"/>
</radialGradient>
<radialGradient id="paint32_radial_157_3642" cx="0" cy="0" r="1" gradientUnits="userSpaceOnUse" gradientTransform="translate(1332.83 132.085) rotate(63.1783) scale(54.3426 45.0812)">
<stop offset="0.06" stop-color="#FCE085"/>
<stop offset="0.96" stop-color="#E988FD"/>
</radialGradient>
<radialGradient id="paint33_radial_157_3642" cx="0" cy="0" r="1" gradientUnits="userSpaceOnUse" gradientTransform="translate(1322.97 76.3522) rotate(83.0891) scale(44.2616 37.1033)">
<stop offset="0.06" stop-color="#FCE085"/>
<stop offset="0.96" stop-color="#E988FD"/>
</radialGradient>
<radialGradient id="paint34_radial_157_3642" cx="0" cy="0" r="1" gradientUnits="userSpaceOnUse" gradientTransform="translate(1349.82 129.281) rotate(38.4803) scale(80.5577 67.2992)">
<stop offset="0.06" stop-color="#FCE085"/>
<stop offset="0.96" stop-color="#E988FD"/>
</radialGradient>
<radialGradient id="paint35_radial_157_3642" cx="0" cy="0" r="1" gradientUnits="userSpaceOnUse" gradientTransform="translate(1349.82 129.274) rotate(38.4796) scale(80.5588 67.2997)">
<stop offset="0.06" stop-color="#FCE085"/>
<stop offset="0.96" stop-color="#E988FD"/>
</radialGradient>
<radialGradient id="paint36_radial_157_3642" cx="0" cy="0" r="1" gradientUnits="userSpaceOnUse" gradientTransform="translate(1327.12 111.576) rotate(38.4795) scale(80.5593 67.3001)">
<stop offset="0.06" stop-color="#FCE085"/>
<stop offset="0.96" stop-color="#E988FD"/>
</radialGradient>
<radialGradient id="paint37_radial_157_3642" cx="0" cy="0" r="1" gradientUnits="userSpaceOnUse" gradientTransform="translate(1369.98 -96.1123) scale(234.943 234.943)">
<stop offset="0.06" stop-color="#FCE085"/>
<stop offset="0.96" stop-color="#E988FD"/>
</radialGradient>
<clipPath id="clip0_157_3642">
<rect width="1440" height="1024" fill="white"/>
</clipPath>
</defs>
</svg>
